{"title":"Chaos (2005) 1080p BluRay {Dual Audio} {6Ch.} [Hindi DD 5.1 Orig","uid":9435308,"size":2368172970,"categoryP":"video","categoryS":"hd___movies","magnet":"?xt=urn:btih:3f7a2a19f65818461d8324c4a0a3eb4fc9d5175d&amp;dn=Chaos+%282005%29+1080p+BluRay+%7BDual+Audio%7D+%7B6Ch.%7D+%5BHindi+DD+5.1+Orig&amp;tr=udp%3A%2F%2Ftracker.openbittorrent.com%3A80&amp;tr=udp%3A%2F%2Fopen.demonii.com%3A1337&amp;tr=udp%3A%2F%2Ftracker.coppersurfer.tk%3A6969&amp;tr=udp%3A%2F%2Fexodus.desync.com%3A6969","seeders":8,"leechers":6,"uploader":"SaNRiM","files":-1,"time":1388892004,"description":"Storyline\n\nIn Seattle, detective Quentin Conners is unfairly suspended and his partner Jason York leaves the police force after a tragic shooting on Pearl Street Bridge, when the hostage and the criminal die. During a bank heist with a hostage situation, Conners is assigned in charge of the operation with the rookie Shane Dekker as his partner. The thieves, lead by Lorenz, apparently do not steal a penny from the bank. While chasing the gangsters, the police team disclose that they planted a virus in the system, stealing one billion dollars from the different accounts, using the principle of the Chaos Theory. Further, they find that Lorenz is killing his accomplices.\n\n\n\nTorrent Info\n\nGeneral\n\nUnique ID : 215087705587314034164437723673708282250 (0xA1D062A21AB3B22883CA5ACB3079418A)\nComplete name : Chaos (2005) 1080p BluRay {Dual Audio} {6Ch.} [Hindi DD 5.1 Original-English DD 5.1] ~SaNRiM~.mkv\nFormat : Matroska\nFormat version : Version 4 / Version 2\nFile size : 2.19 GiB\nDuration : 1h 46mn\nOverall bit rate : 2 945 Kbps\nEncoded date : UTC 2014-01-04 05:09:37\nWriting library : libebml v1.3.0 + libmatroska v1.4.1\n\n\nVideo\n\nID : 1\nFormat : AVC\nFormat/Info : Advanced Video Codec\nFormat profile : &lt;a class=&quot;__cf_email__&quot; href=&quot;/cdn-cgi/l/email-protection&quot; data-cfemail=&quot;4109282629010d746f71&quot;&gt;[email&amp;#160;protected]&lt;/a&gt;&lt;script cf-hash='f9e31' type=&quot;text/javascript&quot;&gt;\n/* &lt;![CDATA[ */!function(){try{var t=&quot;currentScript&quot;in document?document.currentScript:function(){for(var t=document.getElementsByTagName(&quot;script&quot;),e=t.length;e--;)if(t[e].getAttribute(&quot;cf-hash&quot;))return t[e]}();if(t&amp;&amp;t.previousSibling){var e,r,n,i,c=t.previousSibling,a=c.getAttribute(&quot;data-cfemail&quot;);if(a){for(e=&quot;&quot;,r=parseInt(a.substr(0,2),16),n=2;a.length-n;n+=2)i=parseInt(a.substr(n,2),16)^r,e+=String.fromCharCode(i);e=document.createTextNode(e),c.parentNode.replaceChild(e,c)}}}catch(u){}}();/* ]]&gt; */&lt;/script&gt;\nFormat settings, CABAC : Yes\nFormat settings, ReFrames : 16 frames\nCodec ID : V_MPEG4/ISO/AVC\nDuration : 1h 46mn\nBit rate : 2 048 Kbps\nWidth : 1 920 pixels\nHeight : 816 pixels\nDisplay aspect ratio : 2.35:1\nFrame rate mode : Constant\nFrame rate : 23.976 fps\nColor space : YUV\nChroma subsampling : 4:2:0\nBit depth : 8 bits\nScan type : Progressive\nBits/(Pixel*Frame) : 0.055\nStream size : 1.48 GiB (68%)\nTitle : ~SaNRiM~\nWriting library : x264 core 130 r2273 b3065e6\nLanguage : English\nDefault : Yes\nForced : No\nColor primaries : BT.709\nTransfer characteristics : BT.709\nMatrix coefficients : BT.709\n\n\nAudio #1\n\nID : 2\nFormat : AC-3\nFormat/Info : Audio Coding 3\nMode extension : CM (complete main)\nFormat settings, Endianness : Big\nCodec ID : A_AC3\nDuration : 1h 46mn\nBit rate mode : Constant\nBit rate : 448 Kbps\nChannel(s) : 6 channels\nChannel positions : Front: L C R, Side: L R, LFE\nSampling rate : 48.0 KHz\nBit depth : 16 bits\nCompression mode : Lossy\nDelay relative to video : 27ms\nStream size : 341 MiB (15%)\nTitle : ~SaNRiM~\nLanguage : Hindi\nDefault : Yes\nForced : No\n\n\nAudio #2\n\nID : 3\nFormat : AC-3\nFormat/Info : Audio Coding 3\nMode extension : CM (complete main)\nFormat settings, Endianness : Big\nCodec ID : A_AC3\nDuration : 1h 46mn\nBit rate mode : Constant\nBit rate : 448 Kbps\nChannel(s) : 6 channels\nChannel positions : Front: L C R, Side: L R, LFE\nSampling rate : 48.0 KHz\nBit depth : 16 bits\nCompression mode : Lossy\nStream size : 341 MiB (15%)\nTitle : ~SaNRiM~\nLanguage : English\nDefault : No\nForced : No\n\n\n\nScreens\n &lt;a href=&quot;\nhttp://someimage.com/8arZxFz&quot; rel=&quot;nofollow&quot; target=&quot;_NEW&quot;&gt;\nhttp://someimage.com/8arZxFz&lt;/a&gt; &lt;a href=&quot;\nhttp://someimage.com/6dU2ln4&quot; rel=&quot;nofollow&quot; target=&quot;_NEW&quot;&gt;\nhttp://someimage.com/6dU2ln4&lt;/a&gt; &lt;a href=&quot;\nhttp://someimage.com/zvzCbeV&quot; rel=&quot;nofollow&quot; target=&quot;_NEW&quot;&gt;\nhttp://someimage.com/zvzCbeV&lt;/a&gt; &lt;a href=&quot;\nhttp://someimage.com/dDHODoi&quot; rel=&quot;nofollow&quot; target=&quot;_NEW&quot;&gt;\nhttp://someimage.com/dDHODoi&lt;/a&gt; &lt;a href=&quot;\nhttp://someimage.com/bB3aBk0&quot; rel=&quot;nofollow&quot; target=&quot;_NEW&quot;&gt;\nhttp://someimage.com/bB3aBk0&lt;/a&gt; &lt;a href=&quot;\nhttp://someimage.com/YPpVS9N&quot; rel=&quot;nofollow&quot; target=&quot;_NEW&quot;&gt;\nhttp://someimage.com/YPpVS9N&lt;/a&gt; &lt;a href=&quot;\nhttp://someimage.com/4mItI7V&quot; rel=&quot;nofollow&quot; target=&quot;_NEW&quot;&gt;\nhttp://someimage.com/4mItI7V&lt;/a&gt; &lt;a href=&quot;\nhttp://someimage.com/JbHNFfs&quot; rel=&quot;nofollow&quot; target=&quot;_NEW&quot;&gt;\nhttp://someimage.com/JbHNFfs&lt;/a&gt; &lt;a href=&quot;\nhttp://someimage.com/8tAaUub&quot; rel=&quot;nofollow&quot; target=&quot;_NEW&quot;&gt;\nhttp://someimage.com/8tAaUub&lt;/a&gt; &lt;a href=&quot;\nhttp://someimage.com/mE1akgV&quot; rel=&quot;nofollow&quot; target=&quot;_NEW&quot;&gt;\nhttp://someimage.com/mE1akgV&lt;/a&gt; &lt;a href=&quot;\nhttp://someimage.com/3gzXt7h&quot; rel=&quot;nofollow&quot; target=&quot;_NEW&quot;&gt;\nhttp://someimage.com/3gzXt7h&lt;/a&gt; &lt;a href=&quot;\nhttp://someimage.com/153B7Be&quot; rel=&quot;nofollow&quot; target=&quot;_NEW&quot;&gt;\nhttp://someimage.com/153B7Be&lt;/a&gt; &lt;a href=&quot;\nhttp://someimage.com/CGwB0XB&quot; rel=&quot;nofollow&quot; target=&quot;_NEW&quot;&gt;\nhttp://someimage.com/CGwB0XB&lt;/a&gt; &lt;a href=&quot;\nhttp://someimage.com/LhCXLuY&quot; rel=&quot;nofollow&quot; target=&quot;_NEW&quot;&gt;\nhttp://someimage.com/LhCXLuY&lt;/a&gt; &lt;a href=&quot;\nhttp://someimage.com/WAKQH9D&quot; rel=&quot;nofollow&quot; target=&quot;_NEW&quot;&gt;\nhttp://someimage.com/WAKQH9D&lt;/a&gt; &lt;a href=&quot;\nhttp://someimage.com/07KS2Ej&quot; rel=&quot;nofollow&quot; target=&quot;_NEW&quot;&gt;\nhttp://someimage.com/07KS2Ej&lt;/a&gt; &lt;a href=&quot;\nhttp://someimage.com/05ntCKU&quot; rel=&quot;nofollow&quot; target=&quot;_NEW&quot;&gt;\nhttp://someimage.com/05ntCKU&lt;/a&gt; &lt;a href=&quot;\nhttp://someimage.com/txl4EOS&quot; rel=&quot;nofollow&quot; target=&quot;_NEW&quot;&gt;\nhttp://someimage.com/txl4EOS&lt;/a&gt; &lt;a href=&quot;\nhttp://someimage.com/g8H3zhJ&quot; rel=&quot;nofollow&quot; target=&quot;_NEW&quot;&gt;\nhttp://someimage.com/g8H3zhJ&lt;/a&gt; &lt;a href=&quot;\nhttp://someimage.com/7gcYdNG&quot; rel=&quot;nofollow&quot; target=&quot;_NEW&quot;&gt;\nhttp://someimage.com/7gcYdNG&lt;/a&gt; &lt;a href=&quot;\nhttp://someimage.com/6hPXd3g&quot; rel=&quot;nofollow&quot; target=&quot;_NEW&quot;&gt;\nhttp://someimage.com/6hPXd3g&lt;/a&gt; &lt;a href=&quot;\nhttp://someimage.com/FD0Y0cT&quot; rel=&quot;nofollow&quot; target=&quot;_NEW&quot;&gt;\nhttp://someimage.com/FD0Y0cT&lt;/a&gt;\n\n\n                A BIG THANKS TO GPSOFT FOR AUDIO\n\n\n                   If you like my work please comment\n                          Any request? Just PM me\n                       Please seed long after download\n                         Thank you &amp; enjoy the best\n                                 ~SaNRiM~","torrent":{"xt":"urn:btih:3f7a2a19f65818461d8324c4a0a3eb4fc9d5175d","amp;dn":"Chaos+%282005%29+1080p+BluRay+%7BDual+Audio%7D+%7B6Ch.%7D+%5BHindi+DD+5.1+Orig","amp;tr":["udp%3A%2F%2Ftracker.openbittorrent.com%3A80","udp%3A%2F%2Fopen.demonii.com%3A1337","udp%3A%2F%2Ftracker.coppersurfer.tk%3A6969","udp%3A%2F%2Fexodus.desync.com%3A6969"],"infoHash":"3f7a2a19f65818461d8324c4a0a3eb4fc9d5175d","infoHashBuffer":{"type":"Buffer","data":[63,122,42,25,246,88,24,70,29,131,36,196,160,163,235,79,201,213,23,93]},"announce":[],"urlList":[]}}